<svg width="200" height="80" xmlns="http://www.w3.org/2000/svg">
  <defs>
    <linearGradient id="grad1" x1="0%" y1="0%" x2="100%" y2="0%">
      <stop offset="0%" style="stop-color:#1e3a8a;stop-opacity:1" />
      <stop offset="100%" style="stop-color:#3b82f6;stop-opacity:1" />
    </linearGradient>
  </defs>
  
  <!-- Background rectangle -->
  <rect width="200" height="80" rx="10" fill="url(#grad1)"/>
  
  <!-- Wrench icon -->
  <g transform="translate(15, 20)" fill="white">
    <path d="M8 2.5C8 3.88 6.88 5 5.5 5S3 3.88 3 2.5 4.12 0 5.5 0 8 1.12 8 2.5zM7 2.5C7 1.67 6.33 1 5.5 1S4 1.67 4 2.5 4.67 4 5.5 4 7 3.33 7 2.5z"/>
    <path d="M12 8.5C12 9.88 10.88 11 9.5 11S7 9.88 7 8.5 8.12 6 9.5 6s2.5 1.12 2.5 2.5zM11 8.5c0-.83-.67-1.5-1.5-1.5S8 7.67 8 8.5 8.67 10 9.5 10s1.5-.67 1.5-1.5z"/>
    <path d="M6.5 3.5L9.5 6.5" stroke="white" stroke-width="1.5" stroke-linecap="round"/>
  </g>
  
  <!-- Text -->
  <text x="100" y="25" font-family="Arial, sans-serif" font-size="12" font-weight="bold" text-anchor="middle" fill="white">KELVIN'S</text>
  <text x="100" y="40" font-family="Arial, sans-serif" font-size="10" text-anchor="middle" fill="white">PLUMBING &</text>
  <text x="100" y="55" font-family="Arial, sans-serif" font-size="10" text-anchor="middle" fill="white">HARDWARE</text>
  
  <!-- Phone number -->
  <text x="100" y="70" font-family="Arial, sans-serif" font-size="8" text-anchor="middle" fill="#fbbf24">0726807375</text>
</svg>
